<svg width="640" height="360" viewBox="0 0 640 360" fill="none" xmlns="http://www.w3.org/2000/svg">
  <!-- Background -->
  <rect width="640" height="360" fill="#065f46"/>
  
  <!-- Decorative Pattern -->
  <path fill="#047857" fill-opacity="0.4" d="M0 0h80v80H0zM160 0h80v80h-80zM320 0h80v80h-80zM480 0h80v80h-80z"/>
  <path fill="#047857" fill-opacity="0.4" d="M80 80h80v80H80zM240 80h80v80h-80zM400 80h80v80h-80zM560 80h80v80h-80z"/>
  <path fill="#047857" fill-opacity="0.4" d="M0 160h80v80H0zM160 160h80v80h-80zM320 160h80v80h-80zM480 160h80v80h-80z"/>
  <path fill="#047857" fill-opacity="0.4" d="M80 240h80v80H80zM240 240h80v80h-80zM400 240h80v80h-80zM560 240h80v80h-80z"/>
  
  <!-- Content -->
  <g transform="translate(160, 80)">
    <!-- Avatar Circle -->
    <circle cx="60" cy="60" r="50" fill="#10b981"/>
    <text x="60" y="75" font-family="Arial" font-size="40" fill="white" text-anchor="middle">Joy</text>
    
    <!-- Chat Bubbles -->
    <rect x="140" y="20" width="200" height="40" rx="20" fill="#ffffff" opacity="0.9"/>
    <rect x="140" y="80" width="160" height="40" rx="20" fill="#ffffff" opacity="0.7"/>
  </g>
  
  <!-- Play Button -->
  <circle cx="320" cy="180" r="40" fill="white" fill-opacity="0.2"/>
  <path d="M310 160l40 20-40 20z" fill="white"/>
</svg> 